<?xml version="1.0" encoding="utf-8"?>
<!-- Svg Vector Icons : http://www.onlinewebfonts.com/icon -->
<!DOCTYPE svg PUBLIC "-//W3C//DTD SVG 1.1//EN" "http://www.w3.org/Graphics/SVG/1.1/DTD/svg11.dtd">
<svg version="1.1" xmlns="http://www.w3.org/2000/svg" xmlns:xlink="http://www.w3.org/1999/xlink" x="0px" y="0px" viewBox="0 0 1000 1000" enable-background="new 0 0 1000 1000" xml:space="preserve">
<metadata> Svg Vector Icons : http://www.onlinewebfonts.com/icon </metadata>
<g><path fill="#00ac2b" d="M950.7,312.3c-8.8-8.6-22.9-8.5-31.5,0.2c-6.1,6.3-7.6,15.2-4.9,23l-0.5,0.1c20.3,51,31.8,106.3,31.8,164.6c0,246-199.5,445.4-445.4,445.4c-246,0-445.4-199.4-445.4-445.4C54.6,254,254,54.6,500,54.6c125.9,0,239.4,52.4,320.4,136.5l0.3-0.4c8.8,8,22.3,7.8,30.7-0.8c8.6-8.7,8.5-22.9-0.3-31.5c-0.8-0.8-1.9-1.1-2.8-1.8C759.5,66.4,636.6,10,500,10C229.4,10,10,229.4,10,500.1C10,770.6,229.4,990,500,990c270.6,0,490-219.3,490-489.8c0-63-12.3-123-33.9-178.4C955,318.2,953.4,315,950.7,312.3L950.7,312.3z M499.6,624.1L293,417.5c-4-4.1-9.6-6.5-15.7-6.5c-12.3,0-22.3,10-22.3,22.2c0,6.2,2.5,11.7,6.5,15.8l222.7,222.8c4.1,4,9.6,6.5,15.7,6.5c6.4,0,12-2.8,16.1-7l0.1,0.1L888,281.7c0,0.1,0,0.2,0.1,0.2l31.8-33.4c0,0,0-0.1,0-0.2l64-67h-0.1c3.8-4,6.2-9.4,6.2-15.4c0-12.3-10-22.3-22.3-22.3c-6.3,0-11.9,2.7-16,7l0-0.1l-57.3,60c0-0.2-0.1-0.2-0.1-0.2l-31,32.6c0,0,0,0.2,0.1,0.2L499.6,624.1L499.6,624.1z"/></g>
</svg>
